<?xml version="1.0" encoding="UTF-8"?>
<svg width="121px" height="30px" viewBox="0 0 121 30" version="1.1" xmlns="http://www.w3.org/2000/svg" xmlns:xlink="http://www.w3.org/1999/xlink">
    <!-- Generator: Sketch 45.2 (43514) - http://www.bohemiancoding.com/sketch -->
    <title>Logo</title>
    <desc>Created with Sketch.</desc>
    <defs>
        <polygon id="path-1" points="5.31452903 2.742 5.51005026e-05 2.742 5.51005026e-05 0.0969292062 5.31452903 0.0969292062"></polygon>
        <polygon id="path-3" points="6.0001571 2.742 0.383391409 2.742 0.383391409 0.0115847687 6.0001571 0.0115847687 6.0001571 2.742"></polygon>
    </defs>
    <g id="V2" stroke="none" stroke-width="1" fill="none" fill-rule="evenodd">
        <g id="LP_List_V3" transform="translate(-40.000000, -25.000000)">
            <g id="HEADER">
                <g id="Main-Nav" transform="translate(40.000000, 20.000000)">
                    <g id="search-bar">
                        <g id="Logo" transform="translate(0.000000, 5.000000)">
                            <g id="Group-5" transform="translate(12.000000, 12.249138)" fill="#231F20">
                                <path d="M0.351184615,3.11095385 C0.351184615,3.11095385 6.03549231,1.69818462 6.21318462,0.427569231 C6.3918,-0.843507692 -0.0457384615,3.01587692 0.351184615,3.11095385" id="Fill-1"></path>
                                <path d="M0.1914,3.15516923 C1.19432308,2.90363077 2.18755385,2.60963077 3.16601538,2.27778462 C4.02447692,1.98701538 4.88063077,1.65424615 5.65786154,1.1844 C5.84893846,1.06901538 6.85001538,0.259938462 6.19047692,0.125630769 C5.45201538,-0.0257538462 4.2474,0.687784615 3.67047692,0.969784615 C3.36401538,1.11932308 0.128630769,3.13624615 0.166015385,3.16070769 C0.238938462,3.20870769 0.4674,3.01624615 0.536169231,3.06193846 C0.457707692,3.01024615 2.0754,1.94686154 2.19863077,1.87393846 C3.19555385,1.27947692 4.47493846,0.391015385 5.64447692,0.225784615 C6.70924615,0.0762461538 5.15893846,1.36347692 4.94755385,1.48163077 C3.59847692,2.2344 2.00155385,2.69409231 0.510784615,3.06747692 C0.436476923,3.0864 0.172938462,3.15978462 0.1914,3.15516923" id="Fill-3"></path>
                            </g>
                            <g id="Group-12" transform="translate(1.384615, 12.710677)">
                                <g id="Group-8" transform="translate(0.461538, 0.000000)">
                                    <mask id="mask-2" fill="white">
                                        <use xlink:href="#path-1"></use>
                                    </mask>
                                    <g id="Clip-7"></g>
                                    <path d="M5.29855385,2.7522 C5.29855385,2.7522 0.163938462,1.47696923 0.00332307692,0.328661538 C-0.157292308,-0.819184615 5.65763077,2.66589231 5.29855385,2.7522" id="Fill-6" fill="#231F20" mask="url(#mask-2)"></path>
                                </g>
                                <g id="Group-11">
                                    <mask id="mask-4" fill="white">
                                        <use xlink:href="#path-3"></use>
                                    </mask>
                                    <g id="Clip-10"></g>
                                    <path d="M5.9994,2.6598 C4.98447692,2.40549231 3.98155385,2.09303077 3.00124615,1.72795385 C2.8134,1.6578 0.0275538462,0.371492308 0.828784615,0.0207230769 C0.7194,0.0511846154 0.610015385,0.0798 0.500630769,0.1098 C1.41032308,-0.0762 2.77001538,0.894876923 3.51447692,1.30472308 C3.6834,1.39841538 5.72016923,2.71287692 5.66478462,2.74887692 C5.75570769,2.68933846 5.90709231,2.72026154 5.9994,2.6598 C6.04832308,2.62841538 3.71063077,1.13856923 3.51078462,1.03149231 C2.78016923,0.634569231 1.58524615,-0.180969231 0.705553846,0.0530307692 C-0.367984615,0.336876923 1.55893846,1.34626154 1.87647692,1.49349231 C3.0774,2.04733846 4.38309231,2.42856923 5.66478462,2.74887692 C5.76401538,2.7738 5.90293846,2.63533846 5.9994,2.6598" id="Fill-9" fill="#231F20" mask="url(#mask-4)"></path>
                                </g>
                            </g>
                            <g id="Group-51" transform="translate(0.000000, 0.249138)">
                                <path d="M12.3651692,12.7568769 C12.3651692,12.7568769 17.2777846,8.64641538 16.8070154,7.26918462 C16.3362462,5.89426154 11.9234769,12.8468769 12.3651692,12.7568769" id="Fill-13" fill="#231F20"></path>
                                <path d="M12.5502,12.7077231 C13.7298923,11.7172615 14.8606615,10.6455692 15.8654308,9.47741538 C16.0832769,9.22356923 17.8288154,6.74926154 16.5198923,7.09633846 C15.4615846,7.37649231 14.7157385,8.67064615 14.1175846,9.49910769 C13.9398923,9.74510769 12.1228154,12.8014154 12.1800462,12.8064923 C12.3000462,12.8175692 12.4320462,12.6966462 12.5502,12.7077231 C12.4698923,12.7003385 13.9029692,10.2444923 14.0285077,10.0580308 C14.6631231,9.11603077 15.5428154,7.51310769 16.6565077,7.06172308 C16.5512769,7.09033846 16.4460462,7.11895385 16.3408154,7.14756923 C16.8046615,7.02803077 16.6085077,7.82972308 16.5402,8.01756923 C16.2549692,8.79756923 15.5958923,9.47787692 15.0494308,10.0806462 C14.1651231,11.0558769 13.1871231,11.9609538 12.1800462,12.8064923 C12.2677385,12.7331077 12.4602,12.7824923 12.5502,12.7077231" id="Fill-15" fill="#231F20"></path>
                                <path d="M7.04307692,13.1016462 C7.04307692,13.1016462 2.13092308,8.99118462 2.60169231,7.61395385 C3.072,6.23903077 7.48523077,13.1921077 7.04307692,13.1016462" id="Fill-17" fill="#231F20"></path>
                                <path d="M7.22806154,13.0525385 C6.63083077,12.5503846 1.62867692,7.97884615 2.94083077,7.39269231 C2.8176,7.42592308 2.69390769,7.45915385 2.57067692,7.49238462 C3.47806154,7.35530769 4.74221538,9.58684615 5.15298462,10.1725385 C5.37544615,10.4896154 7.15836923,12.7562308 6.87683077,13.1499231 C7.00006154,13.1166923 7.12375385,13.0834615 7.24698462,13.0506923 C7.24052308,13.0511538 7.23452308,13.0516154 7.22806154,13.0525385 C7.10252308,13.0631538 6.98252308,13.1397692 6.85790769,13.1513077 C7.78421538,13.0696154 6.62067692,11.7542308 6.37744615,11.3642308 C5.86098462,10.5348462 5.30113846,9.73084615 4.70390769,8.95823077 C4.28944615,8.42192308 3.77575385,7.67146154 3.12175385,7.40653846 C2.97498462,7.34653846 2.70729231,7.431 2.57067692,7.49238462 C1.95544615,7.76653846 2.82913846,8.98453846 3.02344615,9.26146154 C4.05636923,10.7337692 5.48575385,11.9993077 6.85790769,13.1513077 C6.9156,13.2002308 7.1736,13.0063846 7.22806154,13.0525385" id="Fill-19" fill="#231F20"></path>
                                <path d="M9.99281538,11.2762615 C9.99281538,11.2762615 8.51312308,3.92256923 10.0122,2.95841538 C11.5108154,1.99472308 10.3408154,11.6741077 9.99281538,11.2762615" id="Fill-21" fill="#231F20"></path>
                                <path d="M10.1778462,11.2266462 C9.92815385,9.97172308 9.75138462,8.70203077 9.62538462,7.42910769 C9.52015385,6.36618462 9.05353846,3.48941538 10.2932308,2.86033846 C10.1723077,2.89264615 10.0509231,2.92587692 9.93,2.95772308 C10.8964615,2.75510769 10.5295385,6.65141538 10.4995385,7.10464615 C10.4381538,8.03556923 10.3324615,8.96464615 10.1953846,9.88726154 C10.1515385,10.1803385 10.1261538,11.1532615 9.83215385,11.3374154 C9.95538462,11.3046462 10.0786154,11.2718769 10.2023077,11.2381846 C10.194,11.2344923 10.1856923,11.2308 10.1778462,11.2266462 C10.0892308,11.1832615 9.89261538,11.3669538 9.80769231,11.3254154 C10.6749231,11.7472615 11.1313846,4.0248 10.6624615,3.04218462 C10.5221538,2.74818462 10.2503077,2.86864615 10.0144615,2.93326154 C9.36969231,3.11003077 9.276,4.02572308 9.20584615,4.5708 C8.922,6.76403077 9.37938462,9.1728 9.80769231,11.3254154 C9.80676923,11.3203385 10.1801538,11.2377231 10.1778462,11.2266462" id="Fill-23" fill="#231F20"></path>
                                <path d="M7.72906154,9.43956923 C7.72906154,9.43956923 4.71752308,5.38310769 5.34152308,4.33864615 C5.9646,3.29418462 8.05306154,9.57849231 7.72906154,9.43956923" id="Fill-25" fill="#231F20"></path>
                                <path d="M7.91409231,9.38995385 C7.46732308,8.7858 4.48255385,4.68872308 5.65670769,4.17641538 C5.53347692,4.20964615 5.40978462,4.24287692 5.28655385,4.27564615 C5.95901538,4.21933846 6.56455385,6.24226154 6.73947692,6.68672308 C6.97347692,7.28164615 7.18024615,7.88764615 7.36486154,8.49964615 C7.41747692,8.67549231 7.69301538,9.31241538 7.56101538,9.48964615 C7.68424615,9.45687692 7.80747692,9.42318462 7.93070769,9.39041538 C7.92516923,9.38995385 7.91963077,9.38995385 7.91409231,9.38995385 C7.79132308,9.38533846 7.66532308,9.4938 7.54393846,9.48872308 C8.31286154,9.51549231 7.76824615,8.5038 7.64455385,8.10641538 C7.3944,7.30195385 7.09532308,6.51041538 6.7584,5.7378 C6.53963077,5.23749231 6.28209231,4.53549231 5.81409231,4.20964615 C5.67886154,4.11503077 5.43009231,4.23087692 5.29301538,4.27333846 C4.80332308,4.4238 5.19747692,5.43733846 5.29809231,5.70964615 C5.79793846,7.06426154 6.68963077,8.33349231 7.54393846,9.48872308 C7.57347692,9.52933846 7.88778462,9.35441538 7.91409231,9.38995385" id="Fill-27" fill="#231F20"></path>
                                <path d="M12.3681231,9.10015385 C12.3681231,9.10015385 15.3796615,5.04461538 14.7556615,4.00015385 C14.1325846,2.95615385 12.0441231,9.23953846 12.3681231,9.10015385" id="Fill-29" fill="#231F20"></path>
                                <path d="M12.5533385,9.05058462 C13.2714923,8.07950769 13.9328769,7.05396923 14.4830308,5.97812308 C14.6634923,5.62366154 15.5754923,3.61135385 14.5227231,3.89289231 C13.6988769,4.11396923 13.3342615,5.48335385 13.0564154,6.17381538 C12.9714923,6.38381538 12.0728769,9.15396923 12.1831846,9.14981538 C12.3082615,9.14473846 12.4296462,9.05566154 12.5533385,9.05058462 C12.4407231,9.0552 13.1634923,6.76504615 13.2248769,6.59889231 C13.4967231,5.85812308 13.9153385,4.22012308 14.7082615,3.84581538 C14.5868769,3.87812308 14.4664154,3.91043077 14.3450308,3.94366154 C15.2094923,3.75673846 13.9190308,6.44796923 13.8207231,6.62658462 C13.3388769,7.50304615 12.7781077,8.34627692 12.1831846,9.14981538 C12.2413385,9.07043077 12.4928769,9.13273846 12.5533385,9.05058462" id="Fill-31" fill="#231F20"></path>
                                <path d="M0.6408,11.3334923 C0.331107692,11.3334923 0.0809538462,11.5748769 0.0809538462,11.8725692 C0.0809538462,12.1698 0.331107692,12.4102615 0.6408,12.4102615 C0.950492308,12.4102615 1.20110769,12.1698 1.20110769,11.8725692 C1.20110769,11.5748769 0.950492308,11.3334923 0.6408,11.3334923" id="Fill-33" fill="#930000"></path>
                                <path d="M1.76127692,5.24016923 C1.45158462,5.24016923 1.20096923,5.48155385 1.20096923,5.77924615 C1.20096923,6.07647692 1.45158462,6.31693846 1.76127692,6.31693846 C2.07096923,6.31693846 2.32158462,6.07647692 2.32158462,5.77924615 C2.32158462,5.48155385 2.07096923,5.24016923 1.76127692,5.24016923" id="Fill-35" fill="#930000"></path>
                                <path d="M10.1320615,0.224123077 C9.82236923,0.224123077 9.57175385,0.465046154 9.57175385,0.762276923 C9.57175385,1.05996923 9.82236923,1.30043077 10.1320615,1.30043077 C10.4417538,1.30043077 10.6923692,1.05996923 10.6923692,0.762276923 C10.6923692,0.465046154 10.4417538,0.224123077 10.1320615,0.224123077" id="Fill-37" fill="#930000"></path>
                                <path d="M18.2166462,5.24063077 C17.9069538,5.24063077 17.6563385,5.48155385 17.6563385,5.77878462 C17.6563385,6.07647692 17.9069538,6.31693846 18.2166462,6.31693846 C18.5263385,6.31693846 18.7769538,6.07647692 18.7769538,5.77878462 C18.7769538,5.48155385 18.5263385,5.24063077 18.2166462,5.24063077" id="Fill-39" fill="#930000"></path>
                                <path d="M20.5671692,10.2120923 C20.2574769,10.2120923 20.0068615,10.4525538 20.0068615,10.7507077 C20.0068615,11.0474769 20.2574769,11.2879385 20.5671692,11.2879385 C20.8768615,11.2879385 21.1274769,11.0474769 21.1274769,10.7507077 C21.1274769,10.4525538 20.8768615,10.2120923 20.5671692,10.2120923" id="Fill-41" fill="#930000"></path>
                                <path d="M9.13846154,25.2184154 C9.13846154,26.0491846 9.13846154,26.9071846 9.11076923,27.7384154 C9.08307692,28.1814923 8.97230769,28.2918 8.66769231,28.2918 L7.31076923,28.2918 C7.11692308,28.2918 7.03384615,28.3471846 7.03384615,28.5138 L7.03384615,29.0676462 C7.03384615,29.2333385 7.11692308,29.2887231 7.25538462,29.2887231 C7.56,29.2887231 8.64,29.2061077 10.2461538,29.2061077 C11.4092308,29.2061077 12.6830769,29.2887231 12.9046154,29.2887231 C13.0984615,29.2887231 13.1538462,29.2061077 13.1538462,29.0122615 L13.1538462,28.5410308 C13.1538462,28.3753385 13.0984615,28.2918 12.8769231,28.2918 L11.6030769,28.2918 C11.2984615,28.2918 11.2153846,28.0979538 11.16,27.5722615 C11.1323077,27.2671846 11.1323077,26.2702615 11.1323077,25.1902615 L11.1323077,22.1718 C11.1323077,19.8738 11.1323077,18.1291846 11.1876923,17.6584154 C11.2153846,17.4641077 11.1876923,17.3256462 11.0492308,17.3256462 C10.8830769,17.3256462 10.7446154,17.3814923 10.5230769,17.4922615 C9.47076923,18.0738 8.41846154,18.5164154 7.53230769,18.8487231 C7.39384615,18.9041077 7.33846154,18.9594923 7.33846154,19.0430308 L7.33846154,19.2918 C7.33846154,19.4025692 7.39384615,19.4584154 7.58769231,19.4861077 C8.97230769,19.7076462 9.13846154,20.2061077 9.13846154,21.1476462 L9.13846154,25.2184154 Z M26.1138462,20.5661077 C26.1138462,19.8738 25.4215385,18.4891846 24.5907692,17.9353385 C23.9261538,17.4922615 23.0676923,17.3256462 22.2369231,17.3256462 C20.8523077,17.3256462 19.2461538,18.3507231 18.4430769,19.3471846 L18.3876923,19.3471846 L18.1938462,17.6584154 C18.1661538,17.4368769 18.1107692,17.3256462 17.9723077,17.3256462 C17.8615385,17.3256462 17.6953846,17.4091846 17.4738462,17.5194923 L15.0923077,18.8487231 C14.9538462,18.9041077 14.8430769,18.9876462 14.8430769,19.1261077 L14.8430769,19.2645692 C14.8430769,19.3471846 14.8707692,19.4307231 15.0646154,19.5138 L15.2861538,19.6245692 C15.9784615,19.9568769 16.4215385,20.4276462 16.4215385,21.2584154 L16.4215385,27.7384154 C16.4215385,28.2087231 16.2276923,28.2918 15.8676923,28.2918 L15.0646154,28.2918 C14.8430769,28.2918 14.7876923,28.3753385 14.7876923,28.5410308 L14.7876923,29.0394923 C14.7876923,29.2061077 14.8430769,29.2887231 14.9815385,29.2887231 C15.1476923,29.2887231 16.0338462,29.2061077 17.4461538,29.2061077 C18.9138462,29.2061077 19.6615385,29.2887231 19.8553846,29.2887231 C19.9938462,29.2887231 20.0492308,29.2061077 20.0492308,29.0394923 L20.0492308,28.5691846 C20.0492308,28.3753385 19.9938462,28.2918 19.7723077,28.2918 L19.08,28.2918 C18.4984615,28.2918 18.4153846,28.1261077 18.4153846,27.3784154 L18.4153846,21.6461077 C18.4153846,21.1199538 18.4984615,20.3722615 19.0523077,19.7630308 C19.8830769,18.8768769 20.8523077,18.6830308 21.2953846,18.6830308 C21.9876923,18.6830308 22.6523077,18.6830308 23.3169231,19.1814923 C24.12,19.7630308 24.12,20.5661077 24.12,21.6733385 L24.12,25.3287231 C24.12,26.0491846 24.0923077,26.9353385 24.0646154,27.6548769 C24.0369231,28.1533385 23.8153846,28.2918 23.5107692,28.2918 L22.7076923,28.2918 C22.4307692,28.2918 22.3476923,28.3471846 22.3476923,28.5410308 L22.3476923,28.9841077 C22.3476923,29.2061077 22.4030769,29.2887231 22.5692308,29.2887231 C22.7630769,29.2887231 23.6492308,29.2061077 25.0615385,29.2061077 C26.64,29.2061077 27.4984615,29.2887231 27.6923077,29.2887231 C27.8584615,29.2887231 27.9138462,29.1784154 27.9138462,28.9841077 L27.9138462,28.5410308 C27.9138462,28.3753385 27.8584615,28.2918 27.6092308,28.2918 L26.7230769,28.2918 C26.3630769,28.2918 26.1138462,28.1533385 26.1138462,27.7102615 L26.1138462,20.5661077 Z M38.4923077,17.7414923 C37.6615385,17.4922615 36.6646154,17.3256462 35.5292308,17.3256462 C33.9784615,17.3256462 32.4830769,17.9071846 31.4030769,19.0707231 C30.1015385,20.3722615 29.4646154,22.0610308 29.4646154,23.7784154 C29.4646154,25.6333385 29.7969231,26.8799538 31.2092308,28.2645692 C32.5107692,29.5933385 33.5630769,29.5379538 34.4769231,29.5379538 C35.8892308,29.5379538 37.6615385,28.9291846 38.5476923,28.0430308 L38.9076923,29.2614923 C38.9630769,29.4553385 39.1015385,29.5379538 39.2676923,29.4825692 L42.3969231,28.4307231 C42.5635385,28.3753385 42.6184615,28.2918 42.5903077,28.1261077 L42.5353846,27.9041077 C42.48,27.7661077 42.3692308,27.7384154 41.9815385,27.7102615 C41.5938462,27.6830308 41.0123077,27.5164154 40.7630769,27.2399538 C40.5415385,26.9625692 40.4861538,25.7445692 40.4861538,24.7199538 L40.4861538,18.5994923 C40.4861538,15.0830308 40.5138462,11.0676462 40.5969231,9.68303077 C40.6246154,9.37841538 40.5969231,9.18456923 40.4584615,9.18456923 C40.2646154,9.18456923 40.0707692,9.23995385 39.8215385,9.26718462 C39.2953846,9.37841538 37.8553846,9.62764615 36.7753846,9.84872308 C36.6092308,9.87687692 36.5538462,9.93226154 36.5538462,10.0430308 L36.5538462,10.5138 C36.5538462,10.6245692 36.5815385,10.6799538 36.7476923,10.7076462 C38.2984615,10.9568769 38.4923077,11.2887231 38.4923077,12.3414923 L38.4923077,17.7414923 Z M38.4923077,25.8825692 C38.4923077,26.1876462 38.4646154,26.4091846 38.3261538,26.8241077 C38.0492308,27.5445692 36.8584615,28.3471846 35.3076923,28.3471846 C33.7015385,28.3471846 31.5415385,26.0764154 31.5415385,22.9476462 C31.5415385,21.8953385 31.7353846,20.4276462 32.8153846,19.2645692 C33.5353846,18.5164154 34.4769231,18.2671846 35.3353846,18.2671846 C36.9692308,18.2671846 37.8553846,19.0153385 38.2430769,19.7630308 C38.4923077,20.2061077 38.4923077,20.7318 38.4923077,21.1199538 L38.4923077,25.8825692 Z M45.6923077,25.2184154 C45.6923077,26.0491846 45.6923077,26.9071846 45.6646154,27.7384154 C45.6369231,28.1814923 45.5266154,28.2918 45.222,28.2918 L43.8646154,28.2918 C43.6707692,28.2918 43.5876923,28.3471846 43.5876923,28.5138 L43.5876923,29.0676462 C43.5876923,29.2333385 43.6707692,29.2887231 43.8092308,29.2887231 C44.1138462,29.2887231 45.1938462,29.2061077 46.8004615,29.2061077 C47.9630769,29.2061077 49.2369231,29.2887231 49.4584615,29.2887231 C49.6523077,29.2887231 49.7076923,29.2061077 49.7076923,29.0122615 L49.7076923,28.5410308 C49.7076923,28.3753385 49.6523077,28.2918 49.4307692,28.2918 L48.1569231,28.2918 C47.8523077,28.2918 47.7692308,28.0979538 47.7138462,27.5722615 C47.6866154,27.2671846 47.6866154,26.2702615 47.6866154,25.1902615 L47.6866154,22.1718 C47.6866154,19.8738 47.6866154,18.1291846 47.7415385,17.6584154 C47.7692308,17.4641077 47.7415385,17.3256462 47.6035385,17.3256462 C47.4364615,17.3256462 47.2989231,17.3814923 47.0769231,17.4922615 C46.0250769,18.0738 44.9723077,18.5164154 44.0861538,18.8487231 C43.9481538,18.9041077 43.8923077,18.9594923 43.8923077,19.0430308 L43.8923077,19.2918 C43.8923077,19.4025692 43.9481538,19.4584154 44.142,19.4861077 C45.5266154,19.7076462 45.6923077,20.2061077 45.6923077,21.1476462 L45.6923077,25.2184154 Z M59.5656923,24.2768769 L59.5656923,20.0394923 C59.5656923,19.2918 59.538,18.6548769 58.956,18.0738 C58.5687692,17.7133385 58.0426154,17.3256462 56.7415385,17.3256462 C55.4944615,17.3256462 54.5256923,17.6030308 53.3626154,18.2953385 C52.2272308,18.9594923 51.4518462,20.0122615 51.4518462,20.8984154 C51.4518462,21.5353385 51.6733846,21.7845692 52.1164615,21.7845692 C53.2518462,21.7845692 53.5846154,21.1748769 53.5846154,20.2061077 C53.5846154,19.7076462 53.3349231,19.2918 53.7226154,18.9322615 C54.1098462,18.5722615 54.9692308,18.3507231 55.5226154,18.3507231 C56.3256923,18.3507231 56.8790769,18.5994923 57.1841538,18.9594923 C57.4887692,19.3199538 57.5164615,20.0394923 57.5713846,20.5107231 L57.5713846,22.2830308 C57.1287692,22.6702615 55.6887692,23.3353385 54.4426154,23.8891846 C52.2549231,24.8584154 51.6733846,25.9661077 51.6733846,27.2399538 C51.6733846,28.9841077 52.6703077,29.5379538 53.3349231,29.5379538 C53.9441538,29.5379538 54.4426154,29.5379538 54.9692308,29.3722615 C56.2149231,28.9568769 57.1287692,28.3753385 57.7103077,27.6830308 L57.7656923,27.6830308 C58.0149231,28.8184154 58.7349231,29.5379538 59.7318462,29.5379538 C61.1441538,29.5379538 61.6703077,28.5964154 61.8923077,28.1814923 C62.058,27.9041077 62.0026154,27.7661077 61.9195385,27.6830308 L61.6426154,27.4610308 C61.5318462,27.3784154 61.4764615,27.4338 61.3656923,27.5722615 C61.2272308,27.7661077 60.8395385,27.9876462 60.3969231,27.9876462 C59.898,27.9876462 59.5656923,27.4891846 59.5656923,25.9107231 L59.5656923,24.2768769 Z M57.5446154,26.5194923 C57.5446154,27.2671846 56.0764615,28.2368769 55.2733846,28.2368769 C54.4426154,28.2368769 53.8333846,27.7384154 53.8333846,26.7133385 C53.8333846,24.4153385 56.5476923,23.8614923 57.5446154,23.1133385 L57.5446154,26.5194923 Z M76.7063077,27.8214923 C76.7063077,28.1814923 76.5406154,28.2918 76.0975385,28.2918 L75.2949231,28.2918 C75.0452308,28.2918 75.0175385,28.3471846 75.0175385,28.5691846 L75.0175385,29.0122615 C75.0175385,29.2061077 75.0729231,29.2887231 75.2113846,29.2887231 C75.378,29.2887231 76.32,29.2061077 77.8144615,29.2061077 C79.3652308,29.2061077 80.0852308,29.2887231 80.2790769,29.2887231 C80.4175385,29.2887231 80.4738462,29.2061077 80.4738462,28.9841077 L80.4738462,28.5410308 C80.4738462,28.3471846 80.4175385,28.2918 80.1678462,28.2918 L79.2267692,28.2918 C78.8113846,28.2918 78.6729231,28.0153385 78.6729231,27.6548769 L78.6729231,22.8641077 C78.6729231,21.6179538 78.6456923,20.8707231 79.0606154,20.0676462 C79.5036923,19.2645692 80.6390769,18.6276462 81.4698462,18.6276462 C82.3010769,18.6276462 83.0206154,18.8214923 83.5190769,19.2087231 C84.156,19.7076462 84.3216923,20.5107231 84.3216923,21.4241077 L84.3216923,25.5225692 C84.3216923,26.1318 84.3216923,27.1291846 84.2672308,27.7661077 C84.2390769,28.1533385 84.0175385,28.2918 83.7129231,28.2918 L83.0206154,28.2918 C82.716,28.2918 82.6606154,28.3471846 82.6606154,28.5410308 L82.6606154,29.0122615 C82.6606154,29.2061077 82.716,29.2887231 82.8826154,29.2887231 C83.076,29.2887231 84.0729231,29.2061077 85.4575385,29.2061077 C86.7867692,29.2061077 87.5621538,29.2887231 87.7564615,29.2887231 C87.8944615,29.2887231 87.9503077,29.2061077 87.9503077,29.0122615 L87.9503077,28.5410308 C87.9503077,28.3471846 87.8944615,28.2918 87.6456923,28.2918 L86.898,28.2918 C86.5656923,28.2918 86.316,28.1533385 86.316,27.7384154 L86.316,21.5630308 C86.316,19.4307231 85.6236923,18.8214923 84.9872308,18.1564154 C84.3216923,17.4922615 83.4636923,17.3256462 82.4944615,17.3256462 C80.8333846,17.3256462 79.2544615,18.3784154 78.4236923,19.4584154 L78.2852308,19.4584154 C77.7046154,18.1564154 76.596,17.3256462 75.156,17.3256462 C73.5507692,17.3256462 71.9164615,18.2953385 71.0852308,19.4307231 L71.0021538,19.4307231 L70.8913846,17.8241077 C70.8913846,17.6307231 70.8083077,17.4368769 70.6426154,17.4368769 C70.5318462,17.4368769 70.338,17.4922615 70.116,17.6030308 L67.6795385,18.8487231 C67.6236923,18.8768769 67.5133846,18.9876462 67.5133846,19.0707231 L67.5133846,19.2918 C67.5133846,19.3753385 67.5687692,19.4307231 67.7067692,19.5138 L68.2883077,19.8184154 C68.9533846,20.1784154 69.0641538,20.6764154 69.0641538,21.2302615 L69.0641538,26.1599538 C69.0641538,26.6307231 69.0641538,27.1291846 69.0364615,27.5994923 C69.0083077,28.1261077 68.8703077,28.2918 68.6206154,28.2918 L67.6795385,28.2918 C67.4021538,28.2918 67.3467692,28.3199538 67.3467692,28.5410308 L67.3467692,29.0394923 C67.3467692,29.2333385 67.4021538,29.2887231 67.5687692,29.2887231 C67.7898462,29.2887231 68.676,29.2061077 70.1441538,29.2061077 C71.6672308,29.2061077 72.4149231,29.2887231 72.6636923,29.2887231 C72.8584615,29.2887231 72.8852308,29.1784154 72.8852308,28.9841077 L72.8852308,28.5410308 C72.8852308,28.3471846 72.8584615,28.2918 72.6087692,28.2918 L71.6113846,28.2918 C71.2241538,28.2918 71.0575385,28.0153385 71.0575385,27.5722615 L71.0575385,22.0891846 C71.0575385,21.3138 71.1133846,20.7871846 71.4452308,20.2333385 C72.2210769,18.9876462 73.3841538,18.6276462 74.1041538,18.6276462 C74.7129231,18.6276462 75.516,18.7938 75.8764615,19.1261077 C76.32,19.5410308 76.7063077,20.0676462 76.7063077,22.1164154 L76.7063077,27.8214923 Z M91.4944615,25.2184154 C91.4944615,26.0491846 91.4944615,26.9071846 91.4663077,27.7384154 C91.4390769,28.1814923 91.3283077,28.2918 91.0232308,28.2918 L89.6663077,28.2918 C89.4724615,28.2918 89.3893846,28.3471846 89.3893846,28.5138 L89.3893846,29.0676462 C89.3893846,29.2333385 89.4724615,29.2887231 89.6113846,29.2887231 C89.916,29.2887231 90.996,29.2061077 92.6021538,29.2061077 C93.7652308,29.2061077 95.0390769,29.2887231 95.2606154,29.2887231 C95.4544615,29.2887231 95.5093846,29.2061077 95.5093846,29.0122615 L95.5093846,28.5410308 C95.5093846,28.3753385 95.4544615,28.2918 95.2329231,28.2918 L93.9590769,28.2918 C93.6544615,28.2918 93.5713846,28.0979538 93.516,27.5722615 C93.4883077,27.2671846 93.4883077,26.2702615 93.4883077,25.1902615 L93.4883077,22.1718 C93.4883077,19.8738 93.4883077,18.1291846 93.5432308,17.6584154 C93.5713846,17.4641077 93.5432308,17.3256462 93.4052308,17.3256462 C93.2386154,17.3256462 93.1001538,17.3814923 92.8790769,17.4922615 C91.8267692,18.0738 90.774,18.5164154 89.8883077,18.8487231 C89.7498462,18.9041077 89.6944615,18.9594923 89.6944615,19.0430308 L89.6944615,19.2918 C89.6944615,19.4025692 89.7498462,19.4584154 89.9436923,19.4861077 C91.3283077,19.7076462 91.4944615,20.2061077 91.4944615,21.1476462 L91.4944615,25.2184154 Z M98.6944615,22.4768769 C98.6944615,24.9138 98.6663077,26.4091846 98.6386154,27.6276462 C98.6386154,27.9876462 98.5006154,28.2918 98.1406154,28.2918 L97.116,28.2918 C96.9221538,28.2918 96.8390769,28.3471846 96.8390769,28.5410308 L96.8390769,29.0122615 C96.8390769,29.1784154 96.894,29.2887231 96.9775385,29.2887231 C97.1713846,29.2887231 98.1406154,29.2061077 99.636,29.2061077 C101.020615,29.2061077 101.934,29.2887231 102.100154,29.2887231 C102.266769,29.2887231 102.321692,29.2061077 102.321692,28.9841077 L102.321692,28.5138 C102.321692,28.3471846 102.266769,28.2918 102.072923,28.2918 L101.269846,28.2918 C100.882154,28.2918 100.743231,28.0979538 100.715538,27.7102615 C100.688308,26.7414923 100.688308,25.7999538 100.688308,24.8302615 L100.688308,23.6122615 C101.047846,23.6122615 101.574462,23.6676462 101.879077,23.9168769 C102.321692,24.3322615 105.479077,27.6830308 105.561692,27.9041077 C105.645231,28.1533385 105.479077,28.3471846 105.257538,28.3471846 L105.063692,28.3471846 C104.842154,28.3471846 104.786769,28.4307231 104.786769,28.5691846 L104.786769,29.0122615 C104.786769,29.2061077 104.842154,29.2887231 104.980615,29.2887231 C105.201692,29.2887231 106.365231,29.2061077 107.999077,29.2061077 C109.300615,29.2061077 110.076,29.2887231 110.297538,29.2887231 C110.491385,29.2887231 110.546308,29.2061077 110.546308,29.0394923 L110.546308,28.5410308 C110.546308,28.3471846 110.491385,28.2918 110.325231,28.2918 C110.020615,28.2918 109.383692,28.1533385 108.885231,27.9041077 C108.414462,27.6830308 103.762154,23.0307231 103.208308,22.4768769 C104.149846,21.5630308 106.475538,19.4307231 106.863692,19.2087231 C107.417538,18.8487231 108.220615,18.5722615 108.774,18.5722615 L108.967846,18.5722615 C109.161692,18.5722615 109.189846,18.5164154 109.189846,18.3507231 L109.189846,17.8522615 C109.189846,17.6584154 109.134462,17.5748769 109.023231,17.5748769 C108.829846,17.5748769 108.137538,17.6584154 106.780154,17.6584154 C105.368308,17.6584154 104.371385,17.5748769 104.204769,17.5748769 C104.066769,17.5748769 104.010923,17.6584154 104.010923,17.7968769 L104.010923,18.3230308 C104.010923,18.4891846 104.039077,18.5722615 104.232923,18.5722615 C104.398615,18.5722615 104.731385,18.5722615 104.952923,18.7384154 C105.119077,18.8487231 105.119077,19.0707231 104.952923,19.3753385 C104.731385,19.7076462 102.543231,22.0891846 102.017538,22.4491846 C101.740154,22.6702615 101.047846,22.7533385 100.688308,22.7533385 L100.688308,18.3784154 C100.688308,15.0548769 100.688308,10.9841077 100.826769,9.65487692 C100.854,9.32303077 100.826769,9.18456923 100.660154,9.18456923 C100.494462,9.18456923 100.300615,9.29533846 100.050923,9.40564615 L97.2267692,10.6245692 C96.9498462,10.7353385 96.8667692,10.7902615 96.8667692,10.9010308 L96.8667692,11.1507231 C96.8667692,11.2333385 96.9498462,11.2614923 97.254,11.3441077 C98.6113846,11.7045692 98.6944615,12.1748769 98.6944615,13.3102615 L98.6944615,22.4768769 Z M119.823692,21.8399538 C120.266769,21.8399538 120.599077,21.7845692 120.599077,21.3968769 C120.599077,20.3168769 119.712923,17.3256462 116.528308,17.3256462 C115.143692,17.3256462 113.759077,17.5748769 112.568308,18.7938 C111.100154,20.2614923 110.823692,22.1164154 110.823692,23.1968769 C110.823692,25.1348769 111.072923,26.1599538 112.042154,27.5722615 C113.066769,29.0676462 114.811385,29.5379538 116.389385,29.5379538 C118.854,29.5379538 120.294462,27.6276462 120.792462,26.5194923 C120.930923,26.2148769 120.876,26.1318 120.792462,26.1045692 L120.432462,25.9107231 C120.349846,25.8825692 120.238615,25.9384154 120.183692,26.0491846 C119.712923,26.9625692 118.522154,27.9322615 116.832923,27.9322615 C114.617538,27.9322615 112.900615,25.8825692 112.900615,23.1691846 C112.900615,22.5322615 112.927846,22.0891846 112.983692,21.8399538 L119.823692,21.8399538 Z M113.094462,21.0091846 C113.620154,18.9594923 114.783231,18.1564154 116.002154,18.1564154 C117.802154,18.1564154 118.134462,19.9841077 118.134462,20.6214923 C118.134462,20.8707231 117.912923,21.0091846 117.386769,21.0091846 L113.094462,21.0091846 Z" id="Fill-43" fill="#930000"></path>
                                <polygon id="Fill-45" fill="#930000" points="9.85850769 12.8069077 8.30496923 14.3604462 9.85850769 15.9135231 11.4120462 14.3604462"></polygon>
                                <polygon id="Fill-47" fill="#930000" points="46.1512154 12.8069077 44.5976769 14.3604462 46.1512154 15.9135231 47.7042923 14.3604462"></polygon>
                                <polygon id="Fill-49" fill="#930000" points="91.6089231 12.7266462 90.0549231 14.2801846 91.6089231 15.8332615 93.162 14.2801846"></polygon>
                            </g>
                        </g>
                    </g>
                </g>
            </g>
        </g>
    </g>
</svg>