<?xml version="1.0" encoding="UTF-8"?>
<svg width="24px" height="34px" viewBox="0 0 24 34" version="1.1" xmlns="http://www.w3.org/2000/svg"
     xmlns:xlink="http://www.w3.org/1999/xlink">
  <!-- Generator: Sketch 46.2 (44496) - http://www.bohemiancoding.com/sketch -->
  <title>Logo_Mobile</title>
  <desc>Created with Sketch.</desc>
  <defs>
    <polygon id="path-1"
             points="6.20028387 2.742 6.42839197e-05 2.742 6.42839197e-05 0.0969292062 6.20028387 0.0969292062"></polygon>
    <polygon id="path-3"
             points="7.00018328 2.742 0.447289977 2.742 0.447289977 0.0115847687 7.00018328 0.0115847687 7.00018328 2.742"></polygon>
  </defs>
  <g id="V3" stroke="none" stroke-width="1" fill="none" fill-rule="evenodd">
    <g id="Thread-Page_Expanded-Post_M" transform="translate(-10.000000, -13.000000)">
      <g id="Sticky-Nav">
        <g id="Logo_Mobile" transform="translate(10.000000, 13.000000)">
          <g id="Group-5" transform="translate(14.000000, 14.000000)" fill="#231F20">
            <path
              d="M0.401353846,3.88869231 C0.401353846,3.88869231 6.89770549,2.12273077 7.10078242,0.534461538 C7.30491429,-1.05438462 -0.0522725275,3.76984615 0.401353846,3.88869231"
              id="Fill-1"></path>
            <path
              d="M0.218742857,3.94396154 C1.36494066,3.62953846 2.50006154,3.26203846 3.6183033,2.84723077 C4.5994022,2.48376923 5.57786374,2.06780769 6.46612747,1.4805 C6.6845011,1.33626923 7.82858901,0.324923077 7.07483077,0.157038462 C6.23087473,-0.0321923077 4.85417143,0.859730769 4.19483077,1.21223077 C3.84458901,1.39915385 0.147006593,3.92030769 0.189731868,3.95088462 C0.273072527,4.01088462 0.534171429,3.77030769 0.612764835,3.82742308 C0.523094505,3.76280769 2.37188571,2.43357692 2.51272088,2.34242308 C3.65206154,1.59934615 5.11421538,0.488769231 6.45083077,0.282230769 C7.66770989,0.0953076923 5.89592967,1.70434615 5.65434725,1.85203846 C4.11254505,2.793 2.28749011,3.36761538 0.583753846,3.83434615 C0.498830769,3.858 0.197643956,3.94973077 0.218742857,3.94396154"
              id="Fill-3"></path>
          </g>
          <g id="Group-12" transform="translate(2.000000, 14.000000)">
            <g id="Group-8" transform="translate(0.538462, 0.000000)">
              <mask id="mask-2" fill="white">
                <use xlink:href="#path-1"></use>
              </mask>
              <g id="Clip-7"></g>
              <path
                d="M6.18164615,2.7522 C6.18164615,2.7522 0.191261538,1.47696923 0.00387692308,0.328661538 C-0.183507692,-0.819184615 6.60056923,2.66589231 6.18164615,2.7522"
                id="Fill-6" fill="#231F20" mask="url(#mask-2)"></path>
            </g>
            <g id="Group-11">
              <mask id="mask-4" fill="white">
                <use xlink:href="#path-3"></use>
              </mask>
              <g id="Clip-10"></g>
              <path
                d="M6.9993,2.6598 C5.81522308,2.40549231 4.64514615,2.09303077 3.50145385,1.72795385 C3.2823,1.6578 0.0321461538,0.371492308 0.966915385,0.0207230769 C0.8393,0.0511846154 0.711684615,0.0798 0.584069231,0.1098 C1.64537692,-0.0762 3.23168462,0.894876923 4.10022308,1.30472308 C4.2973,1.39841538 6.67353077,2.71287692 6.60891538,2.74887692 C6.71499231,2.68933846 6.89160769,2.72026154 6.9993,2.6598 C7.05637692,2.62841538 4.32906923,1.13856923 4.09591538,1.03149231 C3.24353077,0.634569231 1.84945385,-0.180969231 0.823146154,0.0530307692 C-0.429315385,0.336876923 1.81876154,1.34626154 2.18922308,1.49349231 C3.5903,2.04733846 5.11360769,2.42856923 6.60891538,2.74887692 C6.72468462,2.7738 6.88676154,2.63533846 6.9993,2.6598"
                id="Fill-9" fill="#231F20" mask="url(#mask-4)"></path>
            </g>
          </g>
          <g id="Group-51">
            <path
              d="M14.0513287,14.4577938 C14.0513287,14.4577938 19.6338462,9.79927077 19.0988811,8.23840923 C18.5639161,6.68016308 13.5494056,14.5597938 14.0513287,14.4577938"
              id="Fill-13" fill="#231F20"></path>
            <path
              d="M14.2615909,14.4020862 C15.6021503,13.2795631 16.8871154,12.0649785 18.0288986,10.7410708 C18.276451,10.4533785 20.2600175,7.64916308 18.7726049,8.04251692 C17.5699825,8.36002462 16.7224301,9.82673231 16.0427098,10.7656554 C15.8407867,11.0444554 13.7759266,14.5082708 13.8409615,14.5140246 C13.9773252,14.5265785 14.1273252,14.3895323 14.2615909,14.4020862 C14.1703322,14.3937169 15.7988287,11.6104246 15.941486,11.3991015 C16.6626399,10.3315015 17.6622902,8.51485538 18.9278497,8.00328615 C18.8082692,8.03571692 18.6886888,8.06814769 18.5691084,8.10057846 C19.0962063,7.96510154 18.8733042,8.87368615 18.7956818,9.08657846 C18.4715559,9.97057846 17.7226049,10.7415938 17.1016259,11.4247323 C16.0967308,12.5299938 14.9853671,13.5557477 13.8409615,14.5140246 C13.9406119,14.4308554 14.1593182,14.4868246 14.2615909,14.4020862"
              id="Fill-15" fill="#231F20"></path>
            <path
              d="M8.0034965,14.8485323 C8.0034965,14.8485323 2.4215035,10.1900092 2.95646853,8.62914769 C3.49090909,7.07090154 8.50594406,14.9510554 8.0034965,14.8485323"
              id="Fill-17" fill="#231F20"></path>
            <path
              d="M8.21370629,14.7928769 C7.53503497,14.2237692 1.85076923,9.04269231 3.34185315,8.37838462 C3.20181818,8.41604615 3.06125874,8.45370769 2.92122378,8.49136923 C3.95234266,8.33601538 5.38888112,10.8650923 5.85566434,11.5288769 C6.10846154,11.8882308 8.13451049,14.4570615 7.81458042,14.9032462 C7.95461538,14.8655846 8.09517483,14.8279231 8.23520979,14.7907846 C8.22786713,14.7913077 8.22104895,14.7918308 8.21370629,14.7928769 C8.07104895,14.8049077 7.93468531,14.8917385 7.79307692,14.9048154 C8.8456993,14.8122308 7.5234965,13.3214615 7.2470979,12.8794615 C6.66020979,11.9394923 6.02402098,11.0282923 5.34534965,10.1526615 C4.87437063,9.54484615 4.29062937,8.69432308 3.54744755,8.39407692 C3.38066434,8.32607692 3.07646853,8.4218 2.92122378,8.49136923 C2.2220979,8.80207692 3.21493007,10.1824769 3.43573427,10.4963231 C4.60951049,12.1649385 6.23381119,13.5992154 7.79307692,14.9048154 C7.85863636,14.9602615 8.15181818,14.7405692 8.21370629,14.7928769"
              id="Fill-19" fill="#231F20"></path>
            <path
              d="M11.355472,12.7797631 C11.355472,12.7797631 9.6740035,4.44557846 11.3775,3.35287077 C13.080472,2.26068615 11.7509266,13.2306554 11.355472,12.7797631"
              id="Fill-21" fill="#231F20"></path>
            <path
              d="M11.5657343,12.7235323 C11.281993,11.3012862 11.0811189,9.86230154 10.9379371,8.41965538 C10.8183566,7.21500923 10.2881119,3.95467077 11.6968531,3.24171692 C11.5594406,3.27833231 11.4215035,3.31599385 11.2840909,3.35208615 C12.3823427,3.12245538 11.9653846,7.53827077 11.9312937,8.05193231 C11.8615385,9.10697846 11.7414336,10.1599323 11.5856643,11.2055631 C11.5358392,11.5377169 11.506993,12.6403631 11.1729021,12.8490708 C11.3129371,12.8119323 11.452972,12.7747938 11.5935315,12.7366092 C11.5840909,12.7324246 11.5746503,12.72824 11.5657343,12.7235323 C11.465035,12.6743631 11.2416084,12.8825477 11.1451049,12.8354708 C12.1305944,13.3135631 12.6493007,4.56144 12.1164336,3.44780923 C11.956993,3.11460923 11.6480769,3.25113231 11.3800699,3.32436308 C10.6473776,3.52470154 10.5409091,4.56248615 10.4611888,5.18024 C10.1386364,7.66590154 10.6583916,10.39584 11.1451049,12.8354708 C11.1440559,12.8297169 11.5683566,12.7360862 11.5657343,12.7235323"
              id="Fill-23" fill="#231F20"></path>
            <path
              d="M8.78302448,10.6981785 C8.78302448,10.6981785 5.36082168,6.10085538 6.06991259,4.91713231 C6.77795455,3.73340923 9.15120629,10.8556246 8.78302448,10.6981785"
              id="Fill-25" fill="#231F20"></path>
            <path
              d="M8.99328671,10.6419477 C8.48559441,9.95724 5.09381119,5.31388615 6.42807692,4.73327077 C6.28804196,4.77093231 6.14748252,4.80859385 6.00744755,4.84573231 C6.77160839,4.78191692 7.45972028,7.07456308 7.6584965,7.57828615 C7.92440559,8.25253231 8.15937063,8.93933231 8.36916084,9.63293231 C8.42895105,9.83222462 8.74206294,10.5540708 8.59206294,10.7549323 C8.7320979,10.7177938 8.87213287,10.6796092 9.01216783,10.6424708 C9.00587413,10.6419477 8.99958042,10.6419477 8.99328671,10.6419477 C8.85377622,10.6367169 8.71059441,10.75964 8.57265734,10.7538862 C9.44643357,10.7842246 8.82755245,9.63764 8.68699301,9.18727077 C8.40272727,8.27554769 8.06286713,7.37847077 7.68,6.50284 C7.4313986,5.93582462 7.13874126,5.14022462 6.60692308,4.77093231 C6.45325175,4.66370154 6.17055944,4.79499385 6.01479021,4.84311692 C5.45832168,5.01364 5.90622378,6.16231692 6.02055944,6.47093231 C6.58856643,8.00616308 7.60185315,9.44462462 8.57265734,10.7538862 C8.60622378,10.7999169 8.96339161,10.6016708 8.99328671,10.6419477"
              id="Fill-27" fill="#231F20"></path>
            <path
              d="M14.0546853,10.3135077 C14.0546853,10.3135077 17.4768881,5.71723077 16.7677972,4.53350769 C16.0597552,3.35030769 13.6865035,10.4714769 14.0546853,10.3135077"
              id="Fill-29" fill="#231F20"></path>
            <path
              d="M14.2651573,10.2573292 C15.0812413,9.15677538 15.8328147,7.99449846 16.4579895,6.77520615 C16.6630594,6.37348308 17.6994231,4.09286769 16.5030944,4.41194462 C15.5669056,4.66249846 15.1525699,6.21446769 14.8368357,6.99699077 C14.7403322,7.23499077 13.7191783,10.3744985 13.844528,10.3697908 C13.9866608,10.3640369 14.1245979,10.2630831 14.2651573,10.2573292 C14.1371853,10.26256 14.958514,7.66705231 15.0282692,7.47874462 C15.3371853,6.63920615 15.8128846,4.78280615 16.7139336,4.35859077 C16.5759965,4.39520615 16.4391084,4.43182154 16.3011713,4.46948308 C17.283514,4.25763692 15.8170804,7.30769846 15.7053671,7.51012923 C15.1578147,8.50345231 14.5205769,9.45911385 13.844528,10.3697908 C13.9106119,10.2798215 14.196451,10.3504369 14.2651573,10.2573292"
              id="Fill-31" fill="#231F20"></path>
            <path
              d="M0.728181818,12.8446246 C0.376258741,12.8446246 0.091993007,13.1181938 0.091993007,13.4555785 C0.091993007,13.79244 0.376258741,14.0649631 0.728181818,14.0649631 C1.0801049,14.0649631 1.3648951,13.79244 1.3648951,13.4555785 C1.3648951,13.1181938 1.0801049,12.8446246 0.728181818,12.8446246"
              id="Fill-33" fill="#930000"></path>
            <path
              d="M2.00145105,5.93885846 C1.64952797,5.93885846 1.36473776,6.21242769 1.36473776,6.54981231 C1.36473776,6.88667385 1.64952797,7.15919692 2.00145105,7.15919692 C2.35337413,7.15919692 2.63816434,6.88667385 2.63816434,6.54981231 C2.63816434,6.21242769 2.35337413,5.93885846 2.00145105,5.93885846"
              id="Fill-35" fill="#930000"></path>
            <path
              d="M11.5137063,0.254006154 C11.1617832,0.254006154 10.876993,0.527052308 10.876993,0.863913846 C10.876993,1.20129846 11.1617832,1.47382154 11.5137063,1.47382154 C11.8656294,1.47382154 12.1504196,1.20129846 12.1504196,0.863913846 C12.1504196,0.527052308 11.8656294,0.254006154 11.5137063,0.254006154"
              id="Fill-37" fill="#930000"></path>
            <path
              d="M20.7007343,5.93938154 C20.3488112,5.93938154 20.064021,6.21242769 20.064021,6.54928923 C20.064021,6.88667385 20.3488112,7.15919692 20.7007343,7.15919692 C21.0526573,7.15919692 21.3374476,6.88667385 21.3374476,6.54928923 C21.3374476,6.21242769 21.0526573,5.93938154 20.7007343,5.93938154"
              id="Fill-39" fill="#930000"></path>
            <path
              d="M23.3717832,11.5737046 C23.0198601,11.5737046 22.7350699,11.8462277 22.7350699,12.1841354 C22.7350699,12.5204738 23.0198601,12.7929969 23.3717832,12.7929969 C23.7237063,12.7929969 24.0084965,12.5204738 24.0084965,12.1841354 C24.0084965,11.8462277 23.7237063,11.5737046 23.3717832,11.5737046"
              id="Fill-41" fill="#930000"></path>
            <path
              d="M10.3846154,28.5808708 C10.3846154,29.5224092 10.3846154,30.4948092 10.3531469,31.4368708 C10.3216783,31.9390246 10.1958042,32.06404 9.84965035,32.06404 L8.30769231,32.06404 C8.08741259,32.06404 7.99300699,32.1268092 7.99300699,32.31564 L7.99300699,32.9433323 C7.99300699,33.1311169 8.08741259,33.1938862 8.24475524,33.1938862 C8.59090909,33.1938862 9.81818182,33.1002554 11.6433566,33.1002554 C12.965035,33.1002554 14.4125874,33.1938862 14.6643357,33.1938862 C14.8846154,33.1938862 14.9475524,33.1002554 14.9475524,32.8805631 L14.9475524,32.3465015 C14.9475524,32.1587169 14.8846154,32.06404 14.6328671,32.06404 L13.1853147,32.06404 C12.8391608,32.06404 12.7447552,31.8443477 12.6818182,31.2485631 C12.6503497,30.9028092 12.6503497,29.7729631 12.6503497,28.5489631 L12.6503497,25.12804 C12.6503497,22.52364 12.6503497,20.5464092 12.7132867,20.0128708 C12.7447552,19.7926554 12.7132867,19.6357323 12.5559441,19.6357323 C12.3671329,19.6357323 12.2097902,19.6990246 11.958042,19.8245631 C10.7622378,20.48364 9.56643357,20.9852708 8.55944056,21.3618862 C8.4020979,21.4246554 8.33916084,21.4874246 8.33916084,21.5821015 L8.33916084,21.86404 C8.33916084,21.9895785 8.4020979,22.0528708 8.62237762,22.0842554 C10.1958042,22.3353323 10.3846154,22.9002554 10.3846154,23.9673323 L10.3846154,28.5808708 Z"
              id="Fill-43" fill="#930000"></path>
            <polygon id="Fill-45" fill="#930000"
                     points="11.2028497 14.5144954 9.43746503 16.2751723 11.2028497 18.0353262 12.9682343 16.2751723"></polygon>
          </g>
        </g>
      </g>
    </g>
  </g>
</svg>
